<?xml version="1.0" encoding="utf-8"?>
<!-- Generator: Adobe Illustrator 27.5.0, SVG Export Plug-In . SVG Version: 6.00 Build 0)  -->
<svg version="1.1" id="Capa_1" xmlns="http://www.w3.org/2000/svg" xmlns:xlink="http://www.w3.org/1999/xlink" x="0px" y="0px"
	 viewBox="0 0 265.113 425.446" style="enable-background:new 0 0 265.113 425.446;" xml:space="preserve">
<rect y="0" style="fill:#966834;" width="265.113" height="425.446"/>
<g>
	<g>
		<rect x="8.821" y="4.457" style="fill:#BF8346;" width="249.115" height="416.531"/>
		<rect x="249.413" y="4.457" style="fill:#B5753E;" width="8.524" height="75.646"/>
		<rect x="249.413" y="154.508" style="fill:#B5753E;" width="8.524" height="75.648"/>
		<rect x="249.413" y="79.794" style="fill:#CA8C50;" width="8.524" height="75.647"/>
		<rect x="232.816" y="4.457" style="fill:#B5753E;" width="8.521" height="35.021"/>
		<rect x="240.89" y="22.668" style="fill:#BE7343;" width="8.523" height="75.648"/>
		<rect x="240.89" y="173.342" style="fill:#BE7343;" width="8.523" height="75.646"/>
		<rect x="240.89" y="97.382" style="fill:#C37E44;" width="8.523" height="75.648"/>
		<rect x="232.816" y="39.947" style="fill:#C37E44;" width="8.521" height="75.648"/>
		<rect x="232.816" y="114.971" style="fill:#BE7343;" width="8.521" height="75.648"/>
		<rect x="249.413" y="230.001" style="fill:#B5753E;" width="8.524" height="75.648"/>
		<rect x="249.413" y="380.052" style="fill:#B5753E;" width="8.524" height="40.937"/>
		<rect x="249.413" y="305.335" style="fill:#CA8C50;" width="8.524" height="75.65"/>
		<rect x="232.816" y="190.776" style="fill:#C37E44;" width="8.521" height="74.248"/>
		<rect x="240.89" y="248.211" style="fill:#BE7343;" width="8.523" height="75.65"/>
		<rect x="240.89" y="398.886" style="fill:#BE7343;" width="8.523" height="22.103"/>
		<rect x="240.89" y="322.926" style="fill:#C37E44;" width="8.523" height="75.65"/>
		<rect x="232.816" y="265.489" style="fill:#B5753E;" width="8.521" height="75.649"/>
		<rect x="232.816" y="340.515" style="fill:#BE7343;" width="8.521" height="75.649"/>
		<rect x="208.14" y="345.341" style="fill:#B5753E;" width="8.525" height="75.648"/>
		<rect x="208.14" y="195.29" style="fill:#B5753E;" width="8.525" height="75.648"/>
		<rect x="208.14" y="270.003" style="fill:#CA8C50;" width="8.525" height="75.649"/>
		<rect x="224.739" y="385.966" style="fill:#B5753E;" width="8.523" height="35.023"/>
		<rect x="216.665" y="327.128" style="fill:#BE7343;" width="8.523" height="75.648"/>
		<rect x="216.665" y="176.456" style="fill:#BE7343;" width="8.523" height="75.648"/>
		<rect x="216.665" y="252.414" style="fill:#C37E44;" width="8.523" height="75.648"/>
		<rect x="224.739" y="309.852" style="fill:#C37E44;" width="8.523" height="75.648"/>
		<rect x="224.739" y="234.826" style="fill:#BE7343;" width="8.523" height="75.647"/>
		<rect x="208.14" y="119.797" style="fill:#C37E44;" width="8.525" height="75.648"/>
		<rect x="208.14" y="4.457" style="fill:#B5753E;" width="8.525" height="40.937"/>
		<rect x="208.14" y="44.461" style="fill:#CA8C50;" width="8.525" height="75.648"/>
		<rect x="224.739" y="160.422" style="fill:#CA8C50;" width="8.523" height="74.248"/>
		<rect x="216.665" y="101.585" style="fill:#BE7343;" width="8.523" height="75.649"/>
		<rect x="216.665" y="26.87" style="fill:#C37E44;" width="8.523" height="75.648"/>
		<rect x="224.739" y="84.308" style="fill:#B5753E;" width="8.523" height="75.647"/>
		<rect x="224.739" y="9.282" style="fill:#BE7343;" width="8.523" height="75.648"/>
		<rect x="199.171" y="4.457" style="fill:#B5753E;" width="8.524" height="75.646"/>
		<rect x="199.171" y="154.508" style="fill:#B5753E;" width="8.524" height="75.648"/>
		<rect x="199.171" y="79.794" style="fill:#CA8C50;" width="8.524" height="75.647"/>
		<rect x="182.571" y="4.457" style="fill:#B5753E;" width="8.525" height="35.021"/>
		<rect x="190.648" y="22.668" style="fill:#BE7343;" width="8.523" height="75.648"/>
		<rect x="190.648" y="173.342" style="fill:#BE7343;" width="8.523" height="75.646"/>
		<rect x="190.648" y="97.382" style="fill:#C37E44;" width="8.523" height="75.648"/>
		<rect x="182.571" y="39.947" style="fill:#C37E44;" width="8.525" height="75.648"/>
		<rect x="182.571" y="114.971" style="fill:#BE7343;" width="8.525" height="75.648"/>
		<rect x="199.171" y="230.001" style="fill:#B5753E;" width="8.524" height="75.648"/>
		<rect x="199.171" y="380.052" style="fill:#B5753E;" width="8.524" height="40.937"/>
		<rect x="199.171" y="305.335" style="fill:#CA8C50;" width="8.524" height="75.65"/>
		<rect x="182.571" y="190.776" style="fill:#C37E44;" width="8.525" height="74.248"/>
		<rect x="190.648" y="248.211" style="fill:#BE7343;" width="8.523" height="75.65"/>
		<rect x="190.648" y="398.886" style="fill:#BE7343;" width="8.523" height="22.103"/>
		<rect x="190.648" y="322.926" style="fill:#C37E44;" width="8.523" height="75.65"/>
		<rect x="182.571" y="265.489" style="fill:#B5753E;" width="8.525" height="75.649"/>
		<rect x="182.571" y="340.515" style="fill:#BE7343;" width="8.525" height="75.649"/>
		<rect x="157.901" y="345.341" style="fill:#B5753E;" width="8.523" height="75.648"/>
		<rect x="157.901" y="195.29" style="fill:#B5753E;" width="8.523" height="75.648"/>
		<rect x="157.901" y="270.003" style="fill:#CA8C50;" width="8.523" height="75.649"/>
		<rect x="174.497" y="385.966" style="fill:#B5753E;" width="8.527" height="35.023"/>
		<rect x="166.425" y="327.128" style="fill:#BE7343;" width="8.521" height="75.648"/>
		<rect x="166.425" y="176.456" style="fill:#BE7343;" width="8.521" height="75.648"/>
		<rect x="166.425" y="252.414" style="fill:#C37E44;" width="8.521" height="75.648"/>
		<rect x="174.497" y="309.852" style="fill:#C37E44;" width="8.527" height="75.648"/>
		<rect x="174.497" y="234.826" style="fill:#BE7343;" width="8.527" height="75.647"/>
		<rect x="157.901" y="119.797" style="fill:#C37E44;" width="8.523" height="75.648"/>
		<rect x="157.901" y="4.457" style="fill:#B5753E;" width="8.523" height="40.937"/>
		<rect x="157.901" y="44.461" style="fill:#CA8C50;" width="8.523" height="75.648"/>
		<rect x="174.497" y="160.422" style="fill:#CA8C50;" width="8.527" height="74.248"/>
		<rect x="166.425" y="101.585" style="fill:#BE7343;" width="8.521" height="75.649"/>
		<rect x="166.425" y="26.87" style="fill:#C37E44;" width="8.521" height="75.648"/>
		<rect x="174.497" y="84.308" style="fill:#B5753E;" width="8.527" height="75.647"/>
		<rect x="174.497" y="9.282" style="fill:#BE7343;" width="8.527" height="75.648"/>
		<rect x="148.929" y="4.457" style="fill:#B5753E;" width="8.521" height="75.646"/>
		<rect x="148.929" y="154.508" style="fill:#B5753E;" width="8.521" height="75.648"/>
		<rect x="148.929" y="79.794" style="fill:#CA8C50;" width="8.521" height="75.647"/>
		<rect x="132.333" y="4.457" style="fill:#B5753E;" width="8.524" height="35.021"/>
		<rect x="140.405" y="22.668" style="fill:#BE7343;" width="8.523" height="75.648"/>
		<rect x="140.405" y="173.342" style="fill:#BE7343;" width="8.523" height="75.646"/>
		<rect x="140.405" y="97.382" style="fill:#C37E44;" width="8.523" height="75.648"/>
		<rect x="132.333" y="39.947" style="fill:#C37E44;" width="8.524" height="75.648"/>
		<rect x="132.333" y="114.971" style="fill:#BE7343;" width="8.524" height="75.648"/>
		<rect x="148.929" y="230.001" style="fill:#B5753E;" width="8.521" height="75.648"/>
		<rect x="148.929" y="380.052" style="fill:#B5753E;" width="8.521" height="40.937"/>
		<rect x="148.929" y="305.335" style="fill:#CA8C50;" width="8.521" height="75.65"/>
		<rect x="132.333" y="190.776" style="fill:#C37E44;" width="8.524" height="74.248"/>
		<rect x="140.405" y="248.211" style="fill:#BE7343;" width="8.523" height="75.65"/>
		<rect x="140.405" y="398.886" style="fill:#BE7343;" width="8.523" height="22.103"/>
		<rect x="140.405" y="322.926" style="fill:#C37E44;" width="8.523" height="75.65"/>
		<rect x="132.333" y="265.489" style="fill:#B5753E;" width="8.524" height="75.649"/>
		<rect x="132.333" y="340.515" style="fill:#BE7343;" width="8.524" height="75.649"/>
		<rect x="107.659" y="345.341" style="fill:#B5753E;" width="8.524" height="75.648"/>
		<rect x="107.659" y="195.29" style="fill:#B5753E;" width="8.524" height="75.648"/>
		<rect x="107.659" y="270.003" style="fill:#CA8C50;" width="8.524" height="75.649"/>
		<rect x="124.259" y="385.966" style="fill:#B5753E;" width="8.521" height="35.023"/>
		<rect x="116.183" y="327.128" style="fill:#BE7343;" width="8.521" height="75.648"/>
		<rect x="116.183" y="176.456" style="fill:#BE7343;" width="8.521" height="75.648"/>
		<rect x="116.183" y="252.414" style="fill:#C37E44;" width="8.521" height="75.648"/>
		<rect x="124.259" y="309.852" style="fill:#C37E44;" width="8.521" height="75.648"/>
		<rect x="124.259" y="234.826" style="fill:#BE7343;" width="8.521" height="75.647"/>
		<rect x="107.659" y="119.797" style="fill:#C37E44;" width="8.524" height="75.648"/>
		<rect x="107.659" y="4.457" style="fill:#B5753E;" width="8.524" height="40.937"/>
		<rect x="107.659" y="44.461" style="fill:#CA8C50;" width="8.524" height="75.648"/>
		<rect x="124.259" y="160.422" style="fill:#CA8C50;" width="8.521" height="74.248"/>
		<rect x="116.183" y="101.585" style="fill:#BE7343;" width="8.521" height="75.649"/>
		<rect x="116.183" y="26.87" style="fill:#C37E44;" width="8.521" height="75.648"/>
		<rect x="124.259" y="84.308" style="fill:#B5753E;" width="8.521" height="75.647"/>
		<rect x="124.259" y="9.282" style="fill:#BE7343;" width="8.521" height="75.648"/>
		<rect x="98.687" y="4.457" style="fill:#B5753E;" width="8.525" height="75.646"/>
		<rect x="98.687" y="154.508" style="fill:#B5753E;" width="8.525" height="75.648"/>
		<rect x="98.687" y="79.794" style="fill:#CA8C50;" width="8.525" height="75.647"/>
		<rect x="82.091" y="4.457" style="fill:#B5753E;" width="8.521" height="35.021"/>
		<rect x="90.165" y="22.668" style="fill:#BE7343;" width="8.521" height="75.648"/>
		<rect x="90.165" y="173.342" style="fill:#BE7343;" width="8.521" height="75.646"/>
		<rect x="90.165" y="97.382" style="fill:#C37E44;" width="8.521" height="75.648"/>
		<rect x="82.091" y="39.947" style="fill:#C37E44;" width="8.521" height="75.648"/>
		<rect x="82.091" y="114.971" style="fill:#BE7343;" width="8.521" height="75.648"/>
		<rect x="98.687" y="230.001" style="fill:#B5753E;" width="8.525" height="75.648"/>
		<rect x="98.687" y="380.052" style="fill:#B5753E;" width="8.525" height="40.937"/>
		<rect x="98.687" y="305.335" style="fill:#CA8C50;" width="8.525" height="75.65"/>
		<rect x="82.091" y="190.776" style="fill:#C37E44;" width="8.521" height="74.248"/>
		<rect x="90.165" y="248.211" style="fill:#BE7343;" width="8.521" height="75.65"/>
		<rect x="90.165" y="398.886" style="fill:#BE7343;" width="8.521" height="22.103"/>
		<rect x="90.165" y="322.926" style="fill:#C37E44;" width="8.521" height="75.65"/>
		<rect x="82.091" y="265.489" style="fill:#B5753E;" width="8.521" height="75.649"/>
		<rect x="82.091" y="340.515" style="fill:#BE7343;" width="8.521" height="75.649"/>
		<rect x="57.419" y="345.341" style="fill:#B5753E;" width="8.519" height="75.648"/>
		<rect x="57.419" y="195.29" style="fill:#B5753E;" width="8.519" height="75.648"/>
		<rect x="57.419" y="270.003" style="fill:#CA8C50;" width="8.519" height="75.649"/>
		<rect x="74.015" y="385.966" style="fill:#B5753E;" width="8.521" height="35.023"/>
		<rect x="65.938" y="327.128" style="fill:#BE7343;" width="8.524" height="75.648"/>
		<rect x="65.938" y="176.456" style="fill:#BE7343;" width="8.524" height="75.648"/>
		<rect x="65.938" y="252.414" style="fill:#C37E44;" width="8.524" height="75.648"/>
		<rect x="74.015" y="309.852" style="fill:#C37E44;" width="8.521" height="75.648"/>
		<rect x="74.015" y="234.826" style="fill:#BE7343;" width="8.521" height="75.647"/>
		<rect x="57.419" y="119.797" style="fill:#C37E44;" width="8.519" height="75.648"/>
		<rect x="57.419" y="4.457" style="fill:#B5753E;" width="8.519" height="40.937"/>
		<rect x="57.419" y="44.461" style="fill:#CA8C50;" width="8.519" height="75.648"/>
		<rect x="74.015" y="160.422" style="fill:#CA8C50;" width="8.521" height="74.248"/>
		<rect x="65.938" y="101.585" style="fill:#BE7343;" width="8.524" height="75.649"/>
		<rect x="65.938" y="26.87" style="fill:#C37E44;" width="8.524" height="75.648"/>
		<rect x="74.015" y="84.308" style="fill:#B5753E;" width="8.521" height="75.647"/>
		<rect x="74.015" y="9.282" style="fill:#BE7343;" width="8.521" height="75.648"/>
		<rect x="48.446" y="4.457" style="fill:#B5753E;" width="8.521" height="75.646"/>
		<rect x="48.446" y="154.508" style="fill:#B5753E;" width="8.521" height="75.648"/>
		<rect x="48.446" y="79.794" style="fill:#CA8C50;" width="8.521" height="75.647"/>
		<rect x="31.847" y="4.457" style="fill:#B5753E;" width="8.524" height="35.021"/>
		<rect x="39.921" y="22.668" style="fill:#BE7343;" width="8.525" height="75.648"/>
		<rect x="39.921" y="173.342" style="fill:#BE7343;" width="8.525" height="75.646"/>
		<rect x="39.921" y="97.382" style="fill:#C37E44;" width="8.525" height="75.648"/>
		<rect x="31.847" y="39.947" style="fill:#C37E44;" width="8.524" height="75.648"/>
		<rect x="31.847" y="114.971" style="fill:#BE7343;" width="8.524" height="75.648"/>
		<rect x="48.446" y="230.001" style="fill:#B5753E;" width="8.521" height="75.648"/>
		<rect x="48.446" y="380.052" style="fill:#B5753E;" width="8.521" height="40.937"/>
		<rect x="48.446" y="305.335" style="fill:#CA8C50;" width="8.521" height="75.65"/>
		<rect x="31.847" y="190.776" style="fill:#C37E44;" width="8.524" height="74.248"/>
		<rect x="39.921" y="248.211" style="fill:#BE7343;" width="8.525" height="75.65"/>
		<rect x="39.921" y="398.886" style="fill:#BE7343;" width="8.525" height="22.103"/>
		<rect x="39.921" y="322.926" style="fill:#C37E44;" width="8.525" height="75.65"/>
		<rect x="31.847" y="265.489" style="fill:#B5753E;" width="8.524" height="75.649"/>
		<rect x="31.847" y="340.515" style="fill:#BE7343;" width="8.524" height="75.649"/>
		<rect x="7.177" y="345.341" style="fill:#B5753E;" width="8.521" height="75.648"/>
		<rect x="7.177" y="195.29" style="fill:#B5753E;" width="8.521" height="75.648"/>
		<rect x="7.177" y="270.003" style="fill:#CA8C50;" width="8.521" height="75.649"/>
		<rect x="23.771" y="385.966" style="fill:#B5753E;" width="8.525" height="35.023"/>
		<rect x="15.698" y="327.128" style="fill:#BE7343;" width="8.525" height="75.648"/>
		<rect x="15.698" y="176.456" style="fill:#BE7343;" width="8.525" height="75.648"/>
		<rect x="15.698" y="252.414" style="fill:#C37E44;" width="8.525" height="75.648"/>
		<rect x="23.771" y="309.852" style="fill:#C37E44;" width="8.525" height="75.648"/>
		<rect x="23.771" y="234.826" style="fill:#BE7343;" width="8.525" height="75.647"/>
		<rect x="7.177" y="119.797" style="fill:#C37E44;" width="8.521" height="75.648"/>
		<rect x="7.177" y="4.457" style="fill:#B5753E;" width="8.521" height="40.937"/>
		<rect x="7.177" y="44.461" style="fill:#CA8C50;" width="8.521" height="75.648"/>
		<rect x="23.771" y="160.422" style="fill:#CA8C50;" width="8.525" height="74.248"/>
		<rect x="15.698" y="101.585" style="fill:#BE7343;" width="8.525" height="75.649"/>
		<rect x="15.698" y="26.87" style="fill:#C37E44;" width="8.525" height="75.648"/>
		<rect x="23.771" y="84.308" style="fill:#B5753E;" width="8.525" height="75.647"/>
		<rect x="23.771" y="9.282" style="fill:#BE7343;" width="8.525" height="75.648"/>
	</g>
	<path style="opacity:0.3;fill:#FFFFFF;" d="M241.858,18.517h-81.047v99.142H104.3V18.517H23.249v388.41h218.609V18.517z
		 M104.3,406.788v-99.139h56.512v99.139H104.3z"/>
	<g>
		<path style="fill:#FFFFFF;" d="M242.759,17.62H161.71h-58.307H22.353v390.204h220.406V17.62z M159.913,308.816
			c0,0.69-0.025,1.389-0.076,2.079l0.076,0.004v4.421l-0.736-0.175c-0.328,1.39-0.771,2.768-1.316,4.091l1.658,0.684
			c0.148-0.353,0.264-0.719,0.395-1.077v87.049h-54.717v-87.049c0.137,0.371,0.26,0.749,0.41,1.115l1.658-0.687
			c-0.547-1.322-0.992-2.698-1.324-4.089l-0.744,0.176v-4.46l0.078-0.004c-0.051-0.69-0.078-1.389-0.078-2.079
			c0-0.09,0.006-0.18,0.008-0.27h54.701C159.905,308.636,159.913,308.725,159.913,308.816z M105.284,306.75
			c0.926-12.33,10.057-22.408,21.939-24.765c1.764-0.125,3.535-0.211,5.332-0.211c1.795,0,3.57,0.086,5.334,0.211
			c11.883,2.357,21.014,12.435,21.939,24.765H105.284z M103.483,306.75h-0.08v7.55h-3.818v1.805h3.818v10.979h-3.818v1.807h3.818
			v10.978h-3.818v1.804h3.818v10.088h-3.818v3.588h3.818v50.68H56.933v-48.63c0-37.073,26.822-67.98,62.074-74.385
			C110.315,287.595,104.212,296.44,103.483,306.75z M161.71,355.35h3.371v-3.588h-3.371v-10.088h3.371v-1.804h-3.371v-10.978h3.371
			v-1.807h-3.371v-10.979h3.371v-1.805h-3.371v-7.55h-0.084c-0.725-10.309-6.83-19.154-15.525-23.735
			c35.254,6.406,62.078,37.313,62.078,74.385v48.63H161.71V355.35z M82.937,211.778c0.506-26.938,22.561-48.699,49.619-48.699
			c27.057,0,49.113,21.761,49.621,48.699H82.937z M182.177,213.667c-0.508,26.938-22.564,48.7-49.621,48.7
			c-27.059,0-49.113-21.762-49.619-48.7H182.177z M208.179,19.414v48.494c0,37.072-26.824,67.981-62.078,74.383
			c8.695-4.579,14.801-13.424,15.525-23.735h0.084v-7.547h3.371v-1.805h-3.371v-10.98h3.371v-1.807h-3.371V85.439h3.371v-1.807
			h-3.371V73.545h3.371v-3.588h-3.371V19.414H208.179z M105.196,116.492c0-0.692,0.027-1.391,0.078-2.079l-0.078-0.004v-4.462
			l0.744,0.179c0.332-1.393,0.777-2.767,1.324-4.089l-1.658-0.687c-0.15,0.366-0.273,0.744-0.41,1.115V19.414h54.717v87.051
			c-0.131-0.361-0.246-0.725-0.395-1.078l-1.658,0.685c0.545,1.322,0.988,2.698,1.316,4.091l0.736-0.175v4.42l-0.076,0.004
			c0.051,0.688,0.076,1.387,0.076,2.079c0,0.09-0.008,0.18-0.008,0.27h-54.701C105.202,116.672,105.196,116.581,105.196,116.492z
			 M159.829,118.556c-0.926,12.333-10.057,22.41-21.939,24.768c-1.764,0.124-3.539,0.209-5.334,0.209
			c-1.797,0-3.568-0.085-5.332-0.209c-11.883-2.358-21.014-12.435-21.939-24.768H159.829z M103.403,69.956h-3.818v3.588h3.818
			v10.087h-3.818v1.807h3.818v10.977h-3.818v1.807h3.818v10.98h-3.818v1.805h3.818v7.547h0.08
			c0.729,10.311,6.832,19.156,15.523,23.735c-35.252-6.402-62.074-37.311-62.074-74.383V19.414h46.471V69.956z M55.138,19.414
			v48.494c0,40.816,31.758,74.333,71.857,77.197c1.801,0.35,3.656,0.539,5.56,0.539c1.9,0,3.762-0.189,5.563-0.539
			c40.1-2.864,71.855-36.381,71.855-77.197V19.414h30.99v192.364H183.97c-0.508-27.927-23.367-50.493-51.414-50.493
			c-28.045,0-50.908,22.566-51.414,50.493H24.147V19.414H55.138z M24.147,213.667h56.994c0.506,27.929,23.369,50.493,51.414,50.493
			c28.047,0,50.906-22.564,51.414-50.493h56.994V406.03h-30.99v-48.63c0-40.818-31.756-74.335-71.855-77.197
			c-1.801-0.349-3.662-0.539-5.563-0.539c-1.904,0-3.76,0.189-5.56,0.539c-40.1,2.863-71.857,36.379-71.857,77.197v48.63h-30.99
			V213.667z"/>
		<path style="fill:#FFFFFF;" d="M147.821,333.657c1.299-0.799,2.543-1.708,3.701-2.7l-1.17-1.362
			c-1.086,0.931-2.254,1.783-3.473,2.535L147.821,333.657z"/>
		<path style="fill:#FFFFFF;" d="M114.782,329.616l-1.164,1.364c1.16,0.991,2.404,1.899,3.703,2.695l0.938-1.528
			C117.042,331.398,115.874,330.548,114.782,329.616z"/>
		<path style="fill:#FFFFFF;" d="M139.39,337.163c1.482-0.355,2.947-0.834,4.355-1.419l-0.689-1.657
			c-1.32,0.551-2.695,0.998-4.086,1.333L139.39,337.163z"/>
		<path style="fill:#FFFFFF;" d="M122.089,334.1l-0.688,1.659c1.41,0.584,2.877,1.059,4.363,1.414l0.414-1.746
			C124.786,335.095,123.411,334.648,122.089,334.1z"/>
		<path style="fill:#FFFFFF;" d="M132.556,336.175c-0.711,0-1.428-0.029-2.131-0.082l-0.137,1.789
			c0.746,0.06,1.512,0.088,2.268,0.088c0.771,0,1.547-0.031,2.309-0.09l-0.141-1.791
			C134.009,336.146,133.278,336.175,132.556,336.175z"/>
		<path style="fill:#FFFFFF;" d="M154.755,327.713c0.992-1.162,1.895-2.411,2.689-3.707l-1.531-0.937
			c-0.746,1.218-1.594,2.389-2.523,3.48L154.755,327.713z"/>
		<path style="fill:#FFFFFF;" d="M109.216,323.101l-1.529,0.937c0.797,1.297,1.703,2.543,2.693,3.704l1.365-1.166
			C110.815,325.488,109.966,324.318,109.216,323.101z"/>
		<path style="fill:#FFFFFF;" d="M117.321,91.631c-1.299,0.798-2.543,1.704-3.703,2.696l1.164,1.362
			c1.092-0.929,2.26-1.781,3.476-2.529L117.321,91.631z"/>
		<path style="fill:#FFFFFF;" d="M139.39,88.145l-0.42,1.744c1.391,0.335,2.766,0.782,4.086,1.333l0.689-1.657
			C142.337,88.977,140.872,88.5,139.39,88.145z"/>
		<path style="fill:#FFFFFF;" d="M125.765,88.134c-1.486,0.354-2.953,0.829-4.363,1.414l0.688,1.657
			c1.322-0.548,2.697-0.993,4.09-1.328L125.765,88.134z"/>
		<path style="fill:#FFFFFF;" d="M110.38,97.566c-0.99,1.16-1.896,2.405-2.693,3.704l1.529,0.937c0.75-1.218,1.6-2.387,2.529-3.477
			L110.38,97.566z"/>
		<path style="fill:#FFFFFF;" d="M154.755,97.595l-1.365,1.163c0.93,1.09,1.777,2.261,2.523,3.48l1.531-0.937
			C156.65,100.003,155.747,98.755,154.755,97.595z"/>
		<path style="fill:#FFFFFF;" d="M132.556,89.132c0.723,0,1.453,0.029,2.168,0.086l0.141-1.79c-0.762-0.06-1.537-0.09-2.309-0.09
			c-0.756,0-1.521,0.029-2.268,0.087l0.137,1.791C131.128,89.161,131.845,89.132,132.556,89.132z"/>
		<path style="fill:#FFFFFF;" d="M147.821,91.65l-0.941,1.528c1.219,0.751,2.387,1.603,3.473,2.535l1.17-1.364
			C150.364,93.358,149.12,92.451,147.821,91.65z"/>
	</g>
</g>
</svg>
